<svg  version="1.0" xmlns="http://www.w3.org/2000/svg" xmlns:xlink="http://www.w3.org/1999/xlink"
     width="100%" height="100%" viewBox="0 0 340.000000 250.000000" preserveAspectRatio="xMidYMid meet"
     color-interpolation-filters="sRGB" class="el-tooltip" style="margin: auto;">
    <rect  x="80" y="65" width="180" height="120" fill="#fff" fill-opacity="0"></rect>
    <g  fill="#ff9100" class="icon-svg-group iconsvg"
       transform="translate(97.23937225341797,70.28058624267578)">
        <g class="iconsvg-imagesvg" transform="translate(40.42753219604492,0)">
            <rect fill="#ff9100" fill-opacity="0" stroke-width="2" x="0" y="0" width="60"
                  height="54.444766359006"></rect>
            <svg x="0" y="0" width="60" height="54.444766359006" class="imagesvg-svg">
                <svg xmlns="http://www.w3.org/2000/svg" viewBox="0 0 241.61 219.24">
                    <g>
                        <g>
                            <path d="M109 92.3a61.8 61.8 0 0 0 53.4 30.83h51.2L153.44 18.84c-14.5-25.12-50.76-25.12-65.26 0l-1.88 3.24a30.9 30.9 0 0 0 0 30.83z"
                                  fill="#ff9100"></path>
                            <path d="M41.47 219.24a30.9 30.9 0 0 0 26.7-15.41l22.75-39.4a61.81 61.81 0 0 0 0-61.66l-25.6-44.34L5.11 162.72c-14.5 25.12 3.62 56.52 32.63 56.52z"
                                  fill="#6ab232"></path>
                            <path d="M234.63 159.48a30.9 30.9 0 0 0-26.7-15.42h-45.49A61.8 61.8 0 0 0 109 174.9l-25.6 44.35h120.47c29 0 47.14-31.4 32.63-56.52z"
                                  fill="#00a5e3"></path>
                        </g>
                    </g>
                </svg>
            </svg> <!---->
        </g>
        <g transform="translate(0,63.00679016113281)">
            <g class="tp-name iconsvg-namesvg" transform="translate(0,0)">
                <g>
                    <path transform="translate(-0.84,28.92)"
                          d="M29.12-18.04L26.04-18.04L26.04-10.20L26.04-10.20Q26.04-9.28 25.70-8.48L25.70-8.48L25.70-8.48Q25.36-7.68 24.76-7.08L24.76-7.08L24.76-7.08Q24.16-6.48 23.36-6.14L23.36-6.14L23.36-6.14Q22.56-5.80 21.64-5.80L21.64-5.80L17.64-5.80L19.36-9.52L19.92-9.52L19.92-9.52Q20.48-9.52 20.84-9.88L20.84-9.88L20.84-9.88Q21.20-10.24 21.20-10.76L21.20-10.76L21.20-18.04L18.36-18.04L12.60-5.80L7.64-5.80L13.40-18.04L7.64-18.04L7.64-21.76L21.20-21.76L21.20-23.68L26.04-23.68L26.04-21.76L29.12-21.76L29.12-18.04ZM27.08 0.04L5.96 0.04L0.84 0.04L0.84-28.84L35.96-28.84L35.96-4.36L35.96-4.36Q35.96-3.44 35.62-2.64L35.62-2.64L35.62-2.64Q35.28-1.84 34.68-1.24L34.68-1.24L34.68-1.24Q34.08-0.64 33.28-0.30L33.28-0.30L33.28-0.30Q32.48 0.04 31.56 0.04L31.56 0.04L28.68 0.04L27.08 0.04ZM5.96-24.88L5.96-3.92L28.68-3.92L29.52-3.92L29.52-3.92Q30.08-3.92 30.44-4.28L30.44-4.28L30.44-4.28Q30.80-4.64 30.80-5.16L30.80-5.16L30.80-24.88L5.96-24.88ZM69.84-25.64L61.72-16.96L72.68-16.96L72.68-12.84L59.72-12.84L59.72-3.60L59.72-3.60Q59.72-2.12 58.68-1.08L58.68-1.08L58.68-1.08Q57.64-0.04 56.16-0.04L56.16-0.04L47.60-0.04L48.80-3.32L53.44-3.32L53.44-3.32Q53.80-3.32 54.08-3.60L54.08-3.60L54.08-3.60Q54.36-3.88 54.32-4.24L54.32-4.24L54.32-12.84L37.68-12.84L37.68-16.96L54.92-16.96L62.08-24.64L40.36-24.64L40.36-28.76L65.92-28.76L69.84-28.76L69.84-25.64ZM94.48-0.04L94.48-9.32L84.64-9.32L84.64-12.68L94.48-12.68L94.48-14.08L91.08-14.08L86.84-14.08L86.00-14.08L86.00-28.52L86.84-28.52L91.08-28.52L108.60-28.52L108.60-18.48L108.60-18.48Q108.60-17.56 108.26-16.76L108.26-16.76L108.26-16.76Q107.92-15.96 107.32-15.36L107.32-15.36L107.32-15.36Q106.72-14.76 105.92-14.42L105.92-14.42L105.92-14.42Q105.12-14.08 104.20-14.08L104.20-14.08L100.04-14.08L100.04-12.68L109.64-12.68L109.64-9.32L100.04-9.32L100.04-0.04L94.48-0.04ZM103.48-18.60L103.48-19.72L100.04-19.72L100.04-17.36L102.24-17.36L102.24-17.36Q102.76-17.36 103.12-17.72L103.12-17.72L103.12-17.72Q103.48-18.08 103.48-18.60L103.48-18.60ZM103.48-23L103.48-25.24L100.04-25.24L100.04-23L103.48-23ZM94.48-25.24L91.08-25.24L91.08-23L94.48-23L94.48-25.24ZM91.08-17.36L94.48-17.36L94.48-19.72L91.08-19.72L91.08-17.36ZM90.52-0.04L85.40-0.04L87.16-8.04L92.28-8.04L90.52-0.04ZM103.84-0.04L102.08-8.04L107.20-8.04L108.96-0.04L103.84-0.04ZM83.00-22.40L77.32-22.40L74.40-28.92L80.08-28.92L83.00-22.40ZM76.72-3.08L76.72-16.16L74.36-16.16L74.36-20.12L76.72-20.12L82.32-20.12L82.40-20.12L82.40-4.60L82.40-4.60Q82.40-4.08 82.76-3.72L82.76-3.72L82.76-3.72Q83.12-3.36 83.64-3.36L83.64-3.36L85.40-3.36L83.84 0.12L79.92 0.12L79.92 0.12Q78.60 0.12 77.66-0.82L77.66-0.82L77.66-0.82Q76.72-1.76 76.72-3.08L76.72-3.08ZM146.36-22.32L146.36-20.24L140.80-20.24L140.80-21.12L140.80-21.12Q140.80-21.32 140.64-21.50L140.64-21.50L140.64-21.50Q140.48-21.68 140.24-21.68L140.24-21.68L116.76-21.68L116.76-20.24L111.24-20.24L111.24-25.60L115-25.60L115-25.60Q114.56-26.48 114.34-26.94L114.34-26.94L114.34-26.94Q114.12-27.40 114.02-27.64L114.02-27.64L114.02-27.64Q113.92-27.88 113.86-27.98L113.86-27.98L113.86-27.98Q113.80-28.08 113.72-28.28L113.72-28.28L119.40-28.28L119.40-28.28Q119.84-27.36 120.18-26.70L120.18-26.70L120.18-26.70Q120.52-26.04 120.72-25.60L120.72-25.60L126-25.60L126-28.88L131.56-28.88L131.56-25.60L136.88-25.60L136.88-25.60Q137.08-26.04 137.40-26.70L137.40-26.70L137.40-26.70Q137.72-27.36 138.16-28.28L138.16-28.28L143.88-28.28L143.88-28.28Q143.80-28.08 143.74-27.98L143.74-27.98L143.74-27.98Q143.68-27.88 143.56-27.64L143.56-27.64L143.56-27.64Q143.44-27.40 143.22-26.94L143.22-26.94L143.22-26.94Q143-26.48 142.56-25.60L142.56-25.60L143.04-25.60L143.04-25.60Q144.44-25.60 145.40-24.64L145.40-24.64L145.40-24.64Q146.36-23.68 146.36-22.32L146.36-22.32ZM146.36-3.44L146.36 0.08L111.24 0.08L111.24-3.44L126.04-3.44L126.04-5.28L111.84-5.28L111.84-8.68L126.04-8.68L126.04-9.40L131.56-9.40L131.56-8.68L145.36-8.68L145.36-5.28L131.56-5.28L131.56-3.44L146.36-3.44ZM118.20-19.36L139.36-19.36L142.24-19.36L144.92-19.36L144.92-14.04L144.92-14.04Q144.92-13.24 144.62-12.56L144.62-12.56L144.62-12.56Q144.32-11.88 143.82-11.38L143.82-11.38L143.82-11.38Q143.32-10.88 142.62-10.58L142.62-10.58L142.62-10.58Q141.92-10.28 141.16-10.28L141.16-10.28L118.20-10.28L115.32-10.28L112.68-10.28L112.68-19.36L114.40-19.36L118.20-19.36ZM118.20-13.92L138.48-13.92L138.48-13.92Q138.84-13.92 139.10-14.18L139.10-14.18L139.10-14.18Q139.36-14.44 139.36-14.80L139.36-14.80L139.36-15.60L118.20-15.60L118.20-13.92Z"></path>
                </g> <!----> <!----> <!----> <!----> <!----> <!----> <!---->
            </g>
            <g class="tp-slogan iconsvg-slogansvg" fill="#00a5e3"
               transform="translate(0.001251220703125,35.920000076293945)"><!---->
                <rect x="144.08999633789062" height="1" y="3.9750003814697266"
                      width="1.4300079345703125"></rect> <!---->
                <g>
                    <path transform="translate(-0.9375,8.8125)"
                          d="M4.41 0L0.94 0L0.94-8.58L4.45-8.58L4.45-8.58Q7.92-8.39 8.06-4.41L8.06-4.41L8.06-4.41Q7.88-0.09 4.41 0L4.41 0ZM4.27-7.64L2.11-7.64L2.11-0.98L4.36-0.98L4.36-0.98Q6.80-1.13 6.89-4.31L6.89-4.31L6.89-4.31Q6.84-7.55 4.27-7.64L4.27-7.64ZM15.19-3.19L15.19-8.58L16.36-8.58L16.36-3.05L16.36-3.05Q16.22 0.05 12.84 0.14L12.84 0.14L12.84 0.14Q9.70 0.05 9.56-2.86L9.56-2.86L9.56-8.58L10.73-8.58L10.73-3.19L10.73-3.19Q10.78-0.84 12.89-0.80L12.89-0.80L12.89-0.80Q15.19-0.84 15.19-3.19L15.19-3.19ZM26.39-8.58L26.39 0L25.27 0L25.27-5.06L25.27-5.06Q25.27-5.77 25.27-7.22L25.27-7.22L22.83 0L21.66 0L19.27-7.22L19.22-7.22L19.22-7.22Q19.22-6.70 19.27-5.67L19.27-5.67L19.27-5.67Q19.27-5.16 19.27-5.06L19.27-5.06L19.27 0L18.09 0L18.09-8.58L19.78-8.58L22.27-1.31L24.70-8.58L26.39-8.58ZM31.73-7.64L29.39-7.64L29.39-4.64L31.69-4.64L31.69-4.64Q33.47-4.64 33.47-6.19L33.47-6.19L33.47-6.19Q33.47-7.59 31.73-7.64L31.73-7.64ZM32.11-3.61L29.39-3.61L29.39 0L28.22 0L28.22-8.58L32.11-8.58L32.11-8.58Q34.55-8.48 34.64-6.19L34.64-6.19L34.64-6.19Q34.50-3.70 32.11-3.61L32.11-3.61ZM36.05-8.58L37.22-8.58L37.22-1.03L41.58-1.03L41.58 0L36.05 0L36.05-8.58ZM42.89-8.58L44.06-8.58L44.06 0L42.89 0L42.89-8.58ZM47.44-8.58L51.75-1.64L51.75-8.58L52.88-8.58L52.88 0L51.56 0L47.20-6.94L47.16-6.94L47.16 0L46.03 0L46.03-8.58L47.44-8.58ZM61.08-3.61L58.45-3.61L58.45-4.59L62.20-4.59L62.20 0L61.45 0L61.17-1.08L61.17-1.08Q60.19 0.09 58.36 0.14L58.36 0.14L58.36 0.14Q56.63 0.14 55.69-0.75L55.69-0.75L55.69-0.75Q54.28-2.06 54.33-4.36L54.33-4.36L54.33-4.36Q54.66-8.63 58.41-8.81L58.41-8.81L58.41-8.81Q61.59-8.63 62.06-6L62.06-6L60.94-6L60.94-6Q60.47-7.78 58.36-7.83L58.36-7.83L58.36-7.83Q55.69-7.64 55.55-4.31L55.55-4.31L55.55-4.31Q55.55-0.75 58.41-0.75L58.41-0.75L58.41-0.75Q59.44-0.75 60.19-1.31L60.19-1.31L60.19-1.31Q61.13-2.06 61.08-3.61L61.08-3.61ZM74.48-6.05L74.48-6.05L73.36-6.05L73.36-6.05Q72.94-7.78 70.97-7.83L70.97-7.83L70.97-7.83Q68.25-7.69 68.16-4.36L68.16-4.36L68.16-4.36Q68.16-0.80 71.02-0.80L71.02-0.80L71.02-0.80Q72.98-0.84 73.45-3.19L73.45-3.19L74.58-3.19L74.58-3.19Q74.06 0.05 70.78 0.14L70.78 0.14L70.78 0.14Q67.03 0 66.94-4.31L66.94-4.31L66.94-4.31Q67.13-8.63 70.97-8.81L70.97-8.81L70.97-8.81Q74.02-8.72 74.48-6.05ZM75.94-8.58L77.11-8.58L77.11-1.03L81.47-1.03L81.47 0L75.94 0L75.94-8.58ZM88.27 0L87.42-2.48L83.95-2.48L83.06 0L81.89 0L85.13-8.58L86.44-8.58L89.53 0L88.27 0ZM85.69-7.31L84.33-3.52L87-3.52L85.73-7.31L85.69-7.31ZM96.84-6.09L96.84-6.09L95.77-6.09L95.77-6.09Q95.67-7.73 93.61-7.83L93.61-7.83L93.61-7.83Q91.69-7.78 91.69-6.33L91.69-6.33L91.69-6.33Q91.69-5.39 92.72-5.25L92.72-5.25L95.16-4.69L95.16-4.69Q97.08-4.22 97.08-2.34L97.08-2.34L97.08-2.34Q97.03 0.05 93.70 0.14L93.70 0.14L93.70 0.14Q91.88 0.14 91.13-0.61L91.13-0.61L91.13-0.61Q90.19-1.31 90.23-2.77L90.23-2.77L91.36-2.77L91.36-2.77Q91.41-0.80 93.70-0.75L93.70-0.75L93.70-0.75Q95.95-0.80 96-2.20L96-2.20L96-2.20Q96.19-3.38 94.13-3.75L94.13-3.75L92.34-4.13L92.34-4.13Q90.52-4.64 90.52-6.19L90.52-6.19L90.52-6.19Q90.66-8.72 93.52-8.81L93.52-8.81L93.52-8.81Q96.75-8.81 96.84-6.09ZM104.81-6.09L104.81-6.09L103.73-6.09L103.73-6.09Q103.64-7.73 101.58-7.83L101.58-7.83L101.58-7.83Q99.66-7.78 99.66-6.33L99.66-6.33L99.66-6.33Q99.66-5.39 100.69-5.25L100.69-5.25L103.13-4.69L103.13-4.69Q105.05-4.22 105.05-2.34L105.05-2.34L105.05-2.34Q105 0.05 101.67 0.14L101.67 0.14L101.67 0.14Q99.84 0.14 99.09-0.61L99.09-0.61L99.09-0.61Q98.16-1.31 98.20-2.77L98.20-2.77L99.33-2.77L99.33-2.77Q99.38-0.80 101.67-0.75L101.67-0.75L101.67-0.75Q103.92-0.80 103.97-2.20L103.97-2.20L103.97-2.20Q104.16-3.38 102.09-3.75L102.09-3.75L100.31-4.13L100.31-4.13Q98.48-4.64 98.48-6.19L98.48-6.19L98.48-6.19Q98.63-8.72 101.48-8.81L101.48-8.81L101.48-8.81Q104.72-8.81 104.81-6.09ZM110.63-3.70L107.81-3.70L107.81 0L106.64 0L106.64-8.58L110.63-8.58L110.63-8.58Q113.48-8.58 113.48-6.28L113.48-6.28L113.48-6.28Q113.48-4.88 112.27-4.22L112.27-4.22L112.27-4.22Q113.30-3.94 113.30-2.58L113.30-2.58L113.39-1.03L113.39-1.03Q113.34-0.38 113.81-0.19L113.81-0.19L113.81 0L112.36 0L112.36 0Q112.22-0.61 112.17-2.16L112.17-2.16L112.17-2.16Q112.22-3.70 110.63-3.70L110.63-3.70ZM110.72-7.64L107.81-7.64L107.81-4.69L110.53-4.69L110.53-4.69Q112.27-4.69 112.27-6.19L112.27-6.19L112.27-6.19Q112.27-7.64 110.72-7.64L110.72-7.64ZM121.92-4.27L121.92-4.27L121.92-4.27Q121.73-7.64 118.92-7.83L118.92-7.83L118.92-7.83Q116.06-7.69 115.92-4.27L115.92-4.27L115.92-4.27Q116.06-0.94 118.92-0.80L118.92-0.80L118.92-0.80Q121.73-0.98 121.92-4.27ZM123.09-4.27L123.09-4.27L123.09-4.27Q122.81 0 118.92 0.14L118.92 0.14L118.92 0.14Q114.98 0 114.70-4.27L114.70-4.27L114.70-4.27Q114.94-8.72 118.92-8.81L118.92-8.81L118.92-8.81Q122.81-8.67 123.09-4.27ZM131.25-4.27L131.25-4.27L131.25-4.27Q131.06-7.64 128.25-7.83L128.25-7.83L128.25-7.83Q125.39-7.69 125.25-4.27L125.25-4.27L125.25-4.27Q125.39-0.94 128.25-0.80L128.25-0.80L128.25-0.80Q131.06-0.98 131.25-4.27ZM132.42-4.27L132.42-4.27L132.42-4.27Q132.14 0 128.25 0.14L128.25 0.14L128.25 0.14Q124.31 0 124.03-4.27L124.03-4.27L124.03-4.27Q124.27-8.72 128.25-8.81L128.25-8.81L128.25-8.81Q132.14-8.67 132.42-4.27ZM142.03-8.58L142.03 0L140.91 0L140.91-5.06L140.91-5.06Q140.91-5.77 140.91-7.22L140.91-7.22L138.47 0L137.30 0L134.91-7.22L134.86-7.22L134.86-7.22Q134.86-6.70 134.91-5.67L134.91-5.67L134.91-5.67Q134.91-5.16 134.91-5.06L134.91-5.06L134.91 0L133.73 0L133.73-8.58L135.42-8.58L137.91-1.31L140.34-8.58L142.03-8.58Z"></path>
                </g>
            </g>
        </g>
    </g>
</svg>