<svg  version="1.0" xmlns="http://www.w3.org/2000/svg" xmlns:xlink="http://www.w3.org/1999/xlink"
     width="100%" height="100%" viewBox="0 0 340.000000 250.000000" preserveAspectRatio="xMidYMid meet"
     color-interpolation-filters="sRGB" class="el-tooltip" style="margin: auto;">
    <rect  x="0" y="0" width="100%" height="100%" fill="#fff" fill-opacity="1"></rect>
    <rect  x="0" y="0" width="100%" height="100%" fill="url(#watermark)" fill-opacity="1"
          class="watermarklayer"></rect>
    <g  fill="#409026" class="icon-svg-group iconsvg"
       transform="translate(59.47895812988281,95.6160774230957)">
        <g class="iconsvg-imagesvg" transform="translate(0,0)">
            <rect fill="#409026" fill-opacity="0" stroke-width="2" x="0" y="0" width="60"
                  height="58.767846665364"></rect>
            <svg x="0" y="0" width="60" height="58.767846665364" class="imagesvg-svg">
                <svg xmlns="http://www.w3.org/2000/svg" viewBox="0 0 153.39 150.24">
                    <defs>
                        <linearGradient id="a405186ba-65e5-4f95-aea4-5a4b371fae3d" x1="65.96" y1="133.49" x2="87.52"
                                        y2="40.46" gradientTransform="matrix(1 0 -.04 1 -6.77 .55)"
                                        gradientUnits="userSpaceOnUse">
                            <stop offset="0" stop-color="#c0d500"></stop>
                            <stop offset=".14" stop-color="#b9d102"></stop>
                            <stop offset=".34" stop-color="#a6c708"></stop>
                            <stop offset=".58" stop-color="#88b711"></stop>
                            <stop offset=".84" stop-color="#5da01d"></stop>
                            <stop offset="1" stop-color="#409026"></stop>
                        </linearGradient>
                        <linearGradient id="b7f2251d1-60f5-45b2-9cdf-6d86e75df6a2" x1="38.87" y1="15.72" x2="210.16"
                                        y2="26.02" gradientUnits="userSpaceOnUse">
                            <stop offset="0" stop-color="#c0d500"></stop>
                            <stop offset=".14" stop-color="#b9d102"></stop>
                            <stop offset=".34" stop-color="#a6c708"></stop>
                            <stop offset=".58" stop-color="#88b711"></stop>
                            <stop offset=".84" stop-color="#5da01d"></stop>
                            <stop offset="1" stop-color="#409026"></stop>
                        </linearGradient>
                    </defs>
                    <g>
                        <g>
                            <path fill="url(#a405186ba-65e5-4f95-aea4-5a4b371fae3d)"
                                  d="M73.35 150.24l-36.61-23.51L61.76 16.92h42.29l-30.7 133.32z"></path>
                            <path d="M23.16 36h130.22c.62 0-22.67-36-22.67-36L0 .13z"
                                  fill="url(#b7f2251d1-60f5-45b2-9cdf-6d86e75df6a2)"></path>
                        </g>
                    </g>
                </svg>
            </svg> <!---->
        </g>
        <g transform="translate(67.00084686279297,4.518308639526367)">
            <g class="tp-name iconsvg-namesvg" transform="translate(0,0)">
                <g>
                    <path transform="translate(-4.44,33.778727167526)"
                          d="M16.96-20.40C17.24-20.40 17.40-20.16 17.28-19.96C15.80-15.52 13.28-11.48 10.40-7.80C10.20-7.52 10.52-7.12 10.80-7.32C14.60-9.56 17.52-12.48 19.92-16C20.08-16.28 20.48-16.12 20.48-15.84L20.48-9.24C20.48-8.08 20.20-7.36 18.96-7.48L15.76-7.64C15.44-7.68 15.32-7.20 15.60-7.04C19.44-5.12 18.24-2.24 19.12-2.36C22.32-2.80 24.96-3.76 24.96-7.36L24.96-20.08C24.96-20.28 25.08-20.40 25.28-20.40L29.72-20.40C30.16-20.40 30.20-21.04 29.76-21.04L25.28-21.04C25.08-21.04 24.96-21.16 24.96-21.36C24.96-27.64 24.76-25.20 26-26.44C26.20-26.60 26.64-27.28 26.12-27.40L20.88-28.24C20.68-28.28 20.48-28.12 20.48-27.96L20.48-21.36C20.48-21.16 20.36-21.04 20.16-21.04L10.72-21.04C10.28-21.04 10.28-20.40 10.72-20.40ZM30.92-29.84C31.12-29.84 31.24-29.72 31.24-29.52L31.24-1.12C31.24-0.92 31.12-0.80 30.92-0.80L9.36-0.80C9.16-0.80 9.04-0.92 9.04-1.12L9.04-29.52C9.04-29.72 9.16-29.84 9.36-29.84ZM31.24-30.56L31.24-30.48L8.92-30.48C8.80-30.48 7.04-31.52 4.80-31.84C4.56-31.84 4.44-31.72 4.44-31.52L4.44 3.04C4.44 3.24 4.56 3.36 4.76 3.36C6.20 3.36 7.60 3.20 8.88 2.44C9 2.40 9.04 2.32 9.04 2.16L9.04 0.20C9.04 0 9.16-0.12 9.36-0.12L30.92-0.12C31.12-0.12 31.24 0 31.24 0.20L31.24 1.80C31.24 2.44 33.28 2.92 33.76 3C34.44 3.12 35.08 3.16 35.72 3.04C35.92 3.04 36 2.92 36 2.72L36-31.60C36-31.88 35.88-31.96 35.60-31.92ZM66.04-30.16C66.32-30.16 66.44-29.96 66.32-29.68C64.92-27.28 63.52-24.92 62.04-22.52C61.96-22.40 61.84-22.36 61.72-22.36L57.60-23.12C57.44-23.16 57.24-23 57.24-22.80L57.24-16.56C57.24-16.36 57.12-16.24 56.92-16.24L42.04-16.24C41.60-16.24 41.64-15.56 42.08-15.56L56.92-15.56C57.12-15.56 57.24-15.44 57.24-15.24L57.24-4.92C57.24-3.60 56.96-2.60 55.40-2.72L49.80-3.12C49.44-3.16 49.36-2.64 49.68-2.48C52.52-1.44 54.52-0.12 54.72 3C54.76 3.20 54.88 3.32 55.08 3.32C58.80 3 62.68 2.20 62.68-2.24L62.68-15.24C62.68-15.44 62.80-15.56 63-15.56L77.88-15.56C78.32-15.56 78.36-16.24 77.92-16.24L63-16.24C62.80-16.24 62.68-16.36 62.68-16.56L62.68-20.08C62.68-20.56 63.68-20.40 64.20-21.56C64.44-22 63.68-21.92 63.68-22.24C63.64-22.40 63.68-22.52 63.80-22.56L72.32-27.92C72.64-28.12 73.64-27.60 74.60-28.68C74.72-28.80 74.68-29 74.56-29.12L69-33.68C68.80-33.84 68.64-33.80 68.52-33.60L67.04-31C67-30.88 66.92-30.84 66.76-30.84L46-30.84C45.56-30.84 45.56-30.16 46-30.16ZM110.52-31C110.72-31 110.84-30.88 110.84-30.68L110.84-25.56C110.84-25.36 110.72-25.24 110.52-25.24L107.68-25.24C107.48-25.24 107.36-25.36 107.36-25.56L107.36-30.68C107.36-30.88 107.48-31 107.68-31ZM110.52-24.56C110.72-24.56 110.84-24.44 110.84-24.24L110.84-19.08C110.84-18.88 110.72-18.76 110.52-18.76L107.68-18.76C107.48-18.76 107.36-18.88 107.36-19.08L107.36-24.24C107.36-24.44 107.48-24.56 107.68-24.56ZM102.68-31C102.88-31 103-30.88 103-30.68L103-25.56C103-25.36 102.88-25.24 102.68-25.24L99.64-25.24C99.44-25.24 99.32-25.36 99.32-25.56L99.32-30.68C99.32-30.88 99.44-31 99.64-31ZM102.68-24.56C102.88-24.56 103-24.44 103-24.24L103-19.08C103-18.88 102.88-18.76 102.68-18.76L99.64-18.76C99.44-18.76 99.32-18.88 99.32-19.08L99.32-24.24C99.32-24.44 99.44-24.56 99.64-24.56ZM88.08-24.76C90.12-24.44 92.76-26.12 92.12-28.84C91.56-31.56 87.52-32.76 85.16-33.08C84.88-33.12 84.68-32.92 84.80-32.64C85.88-30.40 87.08-27.32 87.84-25C87.88-24.88 87.96-24.80 88.08-24.76ZM86.12-19.28C86.32-19.28 86.44-19.16 86.44-18.96L86.44-4.76C86.44-4.20 84.68-4.04 85.08-3.44L88.08 1C88.40 1.52 89 0.56 89-0.04C89-0.12 89-0.16 89.04-0.20L95.40-8.96C95.60-9.24 95.28-9.60 95-9.44L91.20-7.28C90.92-7.16 90.72-7.28 90.72-7.56L90.68-20.76C90.68-21.04 90.44-21.20 90.24-21.08C89.84-20.88 86.80-19.84 86.60-19.84L82.44-19.84C82.08-19.84 82.04-19.56 82.16-19.28ZM114.44-32.60C113.96-32.52 111.24-31.72 110.96-31.72C109.84-31.72 99.28-31.60 99.16-31.72C98.04-32.24 96.88-32.56 95.64-32.68C95.40-32.68 95.28-32.56 95.28-32.36L95.28-16.28C95.28-16 95.40-15.92 95.60-15.96C96.84-15.96 98.08-16.16 99.16-16.76C99.56-16.96 99-18.08 99.64-18.08L102.68-18.08C102.88-18.08 103-17.96 103-17.76L103-13.72C103-13.52 102.88-13.44 102.68-13.44L93.16-13.44C92.72-13.44 92.72-12.76 93.16-12.76L99.48-12.76C99.68-12.76 99.88-12.56 99.76-12.36C98.48-7.88 95.08-3 92 0.52C91.72 0.80 92.04 1.16 92.36 1.04C96.52-1.08 99.68-3.88 102.40-7.60C102.60-7.88 103-7.72 103-7.40L103 3.04C103 3.52 103.60 3.36 103.88 3.36C104.96 3.24 106.28 3.08 107.20 2.48C107.32 2.44 107.36 2.36 107.36 2.20L107.36-12.76C107.64-12.76 107.96-12.80 108-12.48C108.84-7.36 110.56-2.28 114.76 0.64C114.96 0.76 115.08 0.72 115.20 0.56C116.28-1.08 117.44-2.56 118.72-3.84C118.88-4 118.84-4.24 118.56-4.36C114.88-5.52 110.84-9 108.84-12.28C108.72-12.48 108.84-12.76 109.12-12.76L117.36-12.76C117.80-12.76 117.80-13.44 117.36-13.44L107.68-13.44C107.48-13.44 107.36-13.52 107.36-13.72L107.36-17.76C107.36-17.96 107.48-18.08 107.68-18.08L110.52-18.08C111.16-18.08 110.52-16.92 110.96-16.72C112.04-16.04 113.36-15.92 114.52-16.04C114.72-16.04 114.84-16.16 114.84-16.36L114.84-32.28C114.84-32.56 114.72-32.64 114.44-32.60ZM152.28-25C152.24-24.88 152.12-24.80 152-24.80L146.56-24.80C146.28-24.80 146.08-25.16 146.36-25.36L150.68-28.96C151-29.16 151.84-29 152.28-29.76C152.40-29.96 152.36-30.12 152.16-30.20L147.20-32.56C147.04-32.68 146.80-32.56 146.76-32.36L144.76-25.04C144.72-24.88 144.60-24.80 144.44-24.80L142.76-24.80C142.56-24.80 142.44-24.92 142.44-25.12L142.44-30.96C142.44-31.40 143.44-31.24 143.76-32.20C143.80-32.48 143.72-32.60 143.52-32.60L137.88-33.64C137.60-33.68 137.48-33.60 137.48-33.32L137.48-25.12C137.48-24.92 137.36-24.80 137.16-24.80L127.92-24.80C127.48-24.80 127.52-25.48 127.24-26.28C127.12-26.56 126.96-27.32 126.60-27.28C126.48-27.28 126.36-27.20 126.32-27.08C125.24-24.48 123.52-22.04 121.64-20C121.56-19.88 121.52-19.76 121.56-19.68C122.72-16.60 125.96-16.84 127.28-19.32C128.32-21.52 127.72-23.68 127.92-24C127.96-24.04 128.04-24.08 128.16-24.08L151.44-24.08C151.72-24.08 151.88-23.92 151.76-23.64L150.92-21.68C150.88-21.56 150.80-21.52 150.72-21.48C150.20-21.28 146.56-20.16 146.32-20.16L133.80-20.16C133.68-20.16 132.52-20.76 131.68-21.04C131.44-21.16 129.56-21.64 129.24-21.44C129.20-21.40 129.16-21.32 129.16-21.20L129.16-9.32C129.16-9.12 129.28-9 129.48-9C130.92-9 132.40-9.24 133.64-10.04C134.08-10.36 133.40-11.76 134.12-11.76L137.20-11.76C137.40-11.76 137.52-11.64 137.52-11.44L137.52-6.32C137.52-6.12 137.40-6 137.20-6L126.60-6C126.16-6 126.20-5.32 126.64-5.32L137.20-5.32C137.40-5.32 137.52-5.20 137.52-5L137.52 0.36C137.52 0.56 137.40 0.68 137.20 0.68L122.72 0.68C122.28 0.68 122.28 1.32 122.72 1.32L157.60 1.32C158.04 1.32 158.08 0.68 157.64 0.68L142.76 0.68C142.56 0.68 142.44 0.56 142.44 0.36L142.44-5C142.44-5.20 142.56-5.32 142.76-5.32L155-5.32C155.44-5.32 155.48-6 155.04-6L142.76-6C142.56-6 142.44-6.12 142.44-6.32L142.44-11.44C142.44-11.64 142.56-11.76 142.76-11.76L146.08-11.76C146.68-11.76 146.20-10.68 146.52-10.36C147.60-9.44 149.44-9.12 150.84-9.28C151.04-9.28 151.12-9.40 151.12-9.60L151.12-20C151.12-20.12 151.20-20.24 151.32-20.28C153.12-21.04 155.04-21.64 156.68-22.72C156.80-22.84 158.36-22.56 158.48-23.20C158.48-23.32 158.44-23.40 158.36-23.44L153.76-27.48C153.56-27.64 153.40-27.60 153.28-27.36ZM146.08-19.44C146.28-19.44 146.40-19.32 146.40-19.12L146.40-12.84C146.40-12.64 146.28-12.52 146.08-12.52L134.12-12.52C133.92-12.52 133.80-12.64 133.80-12.84L133.80-19.12C133.80-19.32 133.92-19.44 134.12-19.44ZM131.72-25.16C134.16-25.04 135.40-26.32 135.04-28.72C134.72-31.12 131.28-32.08 129.24-32.52C128.96-32.56 128.80-32.36 128.92-32.08C129.88-29.96 130.76-27.64 131.40-25.40C131.44-25.24 131.52-25.16 131.72-25.16Z"></path>
                </g> <!----> <!----> <!----> <!----> <!----> <!----> <!---->
            </g>
            <g class="tp-slogan iconsvg-slogansvg" fill="#333"
               transform="translate(0.001251220703125,40.77872848510742)"><!---->
                <rect fill-opacity="0" x="124.82999420166016" height="1" y="3.9750003814697266"
                      width="29.209999084472656"></rect> <!---->
                <g>
                    <path transform="translate(-0.1875,8.8125)"
                          d="M3.09-7.59L0.19-7.59L0.19-8.58L7.13-8.58L7.13-7.59L4.22-7.59L4.22 0L3.09 0L3.09-7.59ZM13.83-3.19L13.83-8.58L15-8.58L15-3.05L15-3.05Q14.86 0.05 11.48 0.14L11.48 0.14L11.48 0.14Q8.34 0.05 8.20-2.86L8.20-2.86L8.20-8.58L9.38-8.58L9.38-3.19L9.38-3.19Q9.42-0.84 11.53-0.80L11.53-0.80L11.53-0.80Q13.83-0.84 13.83-3.19L13.83-3.19ZM22.45 0L21.61-2.48L18.14-2.48L17.25 0L16.08 0L19.31-8.58L20.63-8.58L23.72 0L22.45 0ZM19.88-7.31L18.52-3.52L21.19-3.52L19.92-7.31L19.88-7.31ZM26.16-8.58L30.47-1.64L30.47-8.58L31.59-8.58L31.59 0L30.28 0L25.92-6.94L25.88-6.94L25.88 0L24.75 0L24.75-8.58L26.16-8.58ZM34.22-1.03L39.52-1.03L39.52 0L32.77 0L32.77-0.94L38.02-7.59L33.14-7.59L33.14-8.58L39.52-8.58L39.52-7.59L34.22-1.03ZM40.83-8.58L42-8.58L42 0L40.83 0L40.83-8.58ZM54.47-6.05L54.47-6.05L53.34-6.05L53.34-6.05Q52.92-7.78 50.95-7.83L50.95-7.83L50.95-7.83Q48.23-7.69 48.14-4.36L48.14-4.36L48.14-4.36Q48.14-0.80 51-0.80L51-0.80L51-0.80Q52.97-0.84 53.44-3.19L53.44-3.19L54.56-3.19L54.56-3.19Q54.05 0.05 50.77 0.14L50.77 0.14L50.77 0.14Q47.02 0 46.92-4.31L46.92-4.31L46.92-4.31Q47.11-8.63 50.95-8.81L50.95-8.81L50.95-8.81Q54-8.72 54.47-6.05ZM55.92-8.58L57.09-8.58L57.09-1.03L61.45-1.03L61.45 0L55.92 0L55.92-8.58ZM68.25 0L67.41-2.48L63.94-2.48L63.05 0L61.88 0L65.11-8.58L66.42-8.58L69.52 0L68.25 0ZM65.67-7.31L64.31-3.52L66.98-3.52L65.72-7.31L65.67-7.31ZM76.83-6.09L76.83-6.09L75.75-6.09L75.75-6.09Q75.66-7.73 73.59-7.83L73.59-7.83L73.59-7.83Q71.67-7.78 71.67-6.33L71.67-6.33L71.67-6.33Q71.67-5.39 72.70-5.25L72.70-5.25L75.14-4.69L75.14-4.69Q77.06-4.22 77.06-2.34L77.06-2.34L77.06-2.34Q77.02 0.05 73.69 0.14L73.69 0.14L73.69 0.14Q71.86 0.14 71.11-0.61L71.11-0.61L71.11-0.61Q70.17-1.31 70.22-2.77L70.22-2.77L71.34-2.77L71.34-2.77Q71.39-0.80 73.69-0.75L73.69-0.75L73.69-0.75Q75.94-0.80 75.98-2.20L75.98-2.20L75.98-2.20Q76.17-3.38 74.11-3.75L74.11-3.75L72.33-4.13L72.33-4.13Q70.50-4.64 70.50-6.19L70.50-6.19L70.50-6.19Q70.64-8.72 73.50-8.81L73.50-8.81L73.50-8.81Q76.73-8.81 76.83-6.09ZM84.80-6.09L84.80-6.09L83.72-6.09L83.72-6.09Q83.63-7.73 81.56-7.83L81.56-7.83L81.56-7.83Q79.64-7.78 79.64-6.33L79.64-6.33L79.64-6.33Q79.64-5.39 80.67-5.25L80.67-5.25L83.11-4.69L83.11-4.69Q85.03-4.22 85.03-2.34L85.03-2.34L85.03-2.34Q84.98 0.05 81.66 0.14L81.66 0.14L81.66 0.14Q79.83 0.14 79.08-0.61L79.08-0.61L79.08-0.61Q78.14-1.31 78.19-2.77L78.19-2.77L79.31-2.77L79.31-2.77Q79.36-0.80 81.66-0.75L81.66-0.75L81.66-0.75Q83.91-0.80 83.95-2.20L83.95-2.20L83.95-2.20Q84.14-3.38 82.08-3.75L82.08-3.75L80.30-4.13L80.30-4.13Q78.47-4.64 78.47-6.19L78.47-6.19L78.47-6.19Q78.61-8.72 81.47-8.81L81.47-8.81L81.47-8.81Q84.70-8.81 84.80-6.09ZM90.61-3.70L87.80-3.70L87.80 0L86.63 0L86.63-8.58L90.61-8.58L90.61-8.58Q93.47-8.58 93.47-6.28L93.47-6.28L93.47-6.28Q93.47-4.88 92.25-4.22L92.25-4.22L92.25-4.22Q93.28-3.94 93.28-2.58L93.28-2.58L93.38-1.03L93.38-1.03Q93.33-0.38 93.80-0.19L93.80-0.19L93.80 0L92.34 0L92.34 0Q92.20-0.61 92.16-2.16L92.16-2.16L92.16-2.16Q92.20-3.70 90.61-3.70L90.61-3.70ZM90.70-7.64L87.80-7.64L87.80-4.69L90.52-4.69L90.52-4.69Q92.25-4.69 92.25-6.19L92.25-6.19L92.25-6.19Q92.25-7.64 90.70-7.64L90.70-7.64ZM101.91-4.27L101.91-4.27L101.91-4.27Q101.72-7.64 98.91-7.83L98.91-7.83L98.91-7.83Q96.05-7.69 95.91-4.27L95.91-4.27L95.91-4.27Q96.05-0.94 98.91-0.80L98.91-0.80L98.91-0.80Q101.72-0.98 101.91-4.27ZM103.08-4.27L103.08-4.27L103.08-4.27Q102.80 0 98.91 0.14L98.91 0.14L98.91 0.14Q94.97 0 94.69-4.27L94.69-4.27L94.69-4.27Q94.92-8.72 98.91-8.81L98.91-8.81L98.91-8.81Q102.80-8.67 103.08-4.27ZM111.23-4.27L111.23-4.27L111.23-4.27Q111.05-7.64 108.23-7.83L108.23-7.83L108.23-7.83Q105.38-7.69 105.23-4.27L105.23-4.27L105.23-4.27Q105.38-0.94 108.23-0.80L108.23-0.80L108.23-0.80Q111.05-0.98 111.23-4.27ZM112.41-4.27L112.41-4.27L112.41-4.27Q112.13 0 108.23 0.14L108.23 0.14L108.23 0.14Q104.30 0 104.02-4.27L104.02-4.27L104.02-4.27Q104.25-8.72 108.23-8.81L108.23-8.81L108.23-8.81Q112.13-8.67 112.41-4.27ZM122.02-8.58L122.02 0L120.89 0L120.89-5.06L120.89-5.06Q120.89-5.77 120.89-7.22L120.89-7.22L118.45 0L117.28 0L114.89-7.22L114.84-7.22L114.84-7.22Q114.84-6.70 114.89-5.67L114.89-5.67L114.89-5.67Q114.89-5.16 114.89-5.06L114.89-5.06L114.89 0L113.72 0L113.72-8.58L115.41-8.58L117.89-1.31L120.33-8.58L122.02-8.58Z"></path>
                </g>
            </g>
        </g>
    </g>
</svg>